HIERARCHY
ROOT Hips
{
	OFFSET 51.462898 16.116091 57.619404
	CHANNELS 6 Xposition Yposition Zposition Xrotation Yrotation Zrotation
	JOINT spine
	{
		OFFSET 0.000000 -0.429886 7.475597
		CHANNELS 3 Xrotation Yrotation Zrotation
		JOINT spine1
		{
			OFFSET 0.000000 -0.000002 9.923012
			CHANNELS 3 Xrotation Yrotation Zrotation
			JOINT spine2
			{
				OFFSET 0.000000 -0.000001 9.508041
				CHANNELS 3 Xrotation Yrotation Zrotation
				JOINT Neck
				{
					OFFSET 0.000000 -1.163845 24.411102
					CHANNELS 3 Xrotation Yrotation Zrotation
					JOINT Head
					{
						OFFSET 0.000000 -0.000001 7.375229
						CHANNELS 3 Xrotation Yrotation Zrotation
						End Site
						{
							OFFSET 0.000000 5.887409 17.852196
						}
					}
				}
				JOINT RightShoulder
				{
					OFFSET -4.003559 0.557466 10.267899
					CHANNELS 3 Xrotation Yrotation Zrotation
					JOINT RightArm
					{
						OFFSET 0.000000 -0.000002 13.467300
						CHANNELS 3 Xrotation Yrotation Zrotation
						JOINT RightArmRoll
						{
							OFFSET 0.000000 -0.000002 6.798576
							CHANNELS 3 Xrotation Yrotation Zrotation
							JOINT RightForeArm
							{
								OFFSET 0.000000 -0.000004 19.801804
								CHANNELS 3 Xrotation Yrotation Zrotation
								JOINT RightForeArmRoll
								{
									OFFSET 0.000000 0.000000 7.629044
									CHANNELS 3 Xrotation Yrotation Zrotation
									JOINT RightHand
									{
										OFFSET 0.000000 -0.000002 15.309799
										CHANNELS 3 Xrotation Yrotation Zrotation
										End Site
										{
											OFFSET 0.000000 0.000000 0.100006
										}
									}
								}
							}
						}
					}
				}
				JOINT LeftShoulder
				{
					OFFSET 4.003559 0.557466 10.267899
					CHANNELS 3 Xrotation Yrotation Zrotation
					JOINT LeftArm
					{
						OFFSET 0.000000 -0.000002 13.467300
						CHANNELS 3 Xrotation Yrotation Zrotation
						JOINT LeftArmRoll
						{
							OFFSET 0.000000 -0.000002 6.798576
							CHANNELS 3 Xrotation Yrotation Zrotation
							JOINT LeftForeArm
							{
								OFFSET 0.000000 -0.000004 19.801804
								CHANNELS 3 Xrotation Yrotation Zrotation
								JOINT LeftForeArmRoll
								{
									OFFSET 0.000000 0.000000 7.629044
									CHANNELS 3 Xrotation Yrotation Zrotation
									JOINT LeftHand
									{
										OFFSET 0.000000 -0.000002 15.309799
										CHANNELS 3 Xrotation Yrotation Zrotation
										End Site
										{
											OFFSET 0.000000 0.000000 0.100006
										}
									}
								}
							}
						}
					}
				}
			}
		}
	}
	JOINT RightUpLeg
	{
		OFFSET -6.626091 1.019270 -1.215050
		CHANNELS 3 Xrotation Yrotation Zrotation
		JOINT RightUpLegRoll
		{
			OFFSET 0.000000 -0.000002 17.951694
			CHANNELS 3 Xrotation Yrotation Zrotation
			JOINT RightLeg
			{
				OFFSET 0.000000 0.000004 -22.230396
				CHANNELS 3 Xrotation Yrotation Zrotation
				JOINT RightLegRoll
				{
					OFFSET 0.000000 -0.000004 22.303196
					CHANNELS 3 Xrotation Yrotation Zrotation
					JOINT RightFoot
					{
						OFFSET 0.000000 -0.000004 18.563599
						CHANNELS 3 Xrotation Yrotation Zrotation
						JOINT RightToeBase
						{
							OFFSET 0.000000 -0.000002 15.518303
							CHANNELS 3 Xrotation Yrotation Zrotation
							End Site
							{
								OFFSET 0.006577 0.866261 7.515381
							}
						}
					}
				}
			}
		}
	}
	JOINT LeftUpLeg
	{
		OFFSET 6.626091 1.019270 -1.215050
		CHANNELS 3 Xrotation Yrotation Zrotation
		JOINT LeftUpLegRoll
		{
			OFFSET 0.000000 -0.000002 17.951794
			CHANNELS 3 Xrotation Yrotation Zrotation
			JOINT LeftLeg
			{
				OFFSET 0.000000 -0.000004 22.230301
				CHANNELS 3 Xrotation Yrotation Zrotation
				JOINT LeftLegRoll
				{
					OFFSET 0.000000 -0.000004 22.509300
					CHANNELS 3 Xrotation Yrotation Zrotation
					JOINT LeftFoot
					{
						OFFSET 0.000000 -0.000004 18.357498
						CHANNELS 3 Xrotation Yrotation Zrotation
						JOINT LeftToeBase
						{
							OFFSET 0.000000 -0.000002 15.518295
							CHANNELS 3 Xrotation Yrotation Zrotation
							End Site
							{
								OFFSET -0.029476 0.866261 7.515381
							}
						}
					}
				}
			}
		}
	}
}
MOTION
Frames: 12
Frame Time: 0.041667
54.470398 -22.025511 93.906204 -4.206716 1.324234 -1.915607 -1.061753 0.064868 -0.021839 1.882434 0.123630 -0.031481 3.527517 0.123048 -0.032820 8.060335 6.144699 -2.415796 2.621504 -8.733294 -1.882312 -7.411743 -68.787744 -9.466891 -57.100299 -115.234321 -36.533845 0.000001 -0.000000 -0.000003 0.040469 -4.916949 -1.520953 0.000000 -0.000004 -3.107290 -5.000207 -7.999413 0.000089 -12.462701 73.254175 15.289061 -69.300902 104.248037 39.368678 0.000004 0.000000 0.000004 -0.014218 -3.231890 0.825231 -0.000001 -0.000012 3.036856 -5.000165 7.999939 -0.000012 3.242980 176.241010 -2.825895 179.999991 -0.000005 -1.056994 173.317211 -1.868235 -0.480866 -0.000004 0.000002 0.062511 68.775873 6.852046 2.234593 25.456930 -7.361607 -0.000006 0.953340 178.599188 1.825642 -0.000005 -0.000004 -1.103210 -10.980213 3.113683 0.612901 -0.000001 0.000004 -0.156295 70.369035 -6.813751 -2.242287 25.456912 7.361382 0.000004 
54.475098 -22.025103 93.908806 -4.210451 1.320278 -1.919032 -1.062478 0.064868 -0.020526 1.880744 0.123693 -0.029693 3.525828 0.123164 -0.031048 8.098902 6.144166 -2.419201 2.592968 -8.740802 -1.884757 -7.391107 -68.809382 -9.445326 -57.216686 -115.239566 -36.664848 0.000001 -0.000001 -0.000003 0.040447 -4.928530 -1.521064 0.000000 -0.000004 -3.107290 -5.000208 -7.999412 0.000085 -12.483846 73.256149 15.312217 -69.362067 104.256663 39.467145 0.000002 -0.000000 0.000001 -0.014224 -3.197161 0.825226 -0.000000 -0.000013 3.036480 -5.000167 7.999940 -0.000009 3.241154 176.250982 -2.819741 179.999991 -0.000005 -1.056994 173.308851 -1.867213 -0.481022 -0.000003 0.000002 0.062754 68.778625 6.852077 2.234430 25.456928 -7.361609 -0.000006 0.957453 178.610184 1.833996 -0.000005 -0.000004 -1.103210 -10.975469 3.110120 0.613017 -0.000001 0.000004 -0.156295 70.369561 -6.813728 -2.242248 25.456916 7.361382 0.000004 
54.491898 -22.046614 93.909508 -4.213865 1.316343 -1.922492 -1.063320 0.064868 -0.019210 1.878834 0.123753 -0.027929 3.523918 0.123280 -0.029300 8.137866 6.143812 -2.422685 2.564365 -8.748747 -1.887220 -7.370035 -68.831327 -9.423295 -57.335340 -115.244703 -36.797692 0.000002 0.000000 -0.000002 0.040405 -4.939708 -1.521230 0.000001 -0.000004 -3.107299 -5.000208 -7.999411 0.000088 -12.505575 73.257378 15.335989 -69.422241 104.265816 39.563652 0.000004 -0.000000 -0.000000 -0.014235 -3.163482 0.825226 -0.000001 -0.000012 3.036131 -5.000165 7.999941 -0.000016 3.239200 176.260955 -2.813879 179.999991 -0.000005 -1.056994 173.300354 -1.866177 -0.481181 -0.000003 0.000002 0.062997 68.781357 6.852075 2.234359 25.456933 -7.361607 -0.000006 0.961113 178.621195 1.842712 -0.000005 -0.000004 -1.103210 -10.970821 3.106192 0.613140 -0.000002 0.000004 -0.156295 70.370401 -6.813711 -2.242194 25.456912 7.361382 0.000004 
54.492592 -22.035910 93.913803 -4.217051 1.312428 -1.925987 -1.064231 0.064868 -0.017892 1.876785 0.123811 -0.026182 3.521868 0.123393 -0.027569 8.177093 6.143570 -2.426205 2.535713 -8.757014 -1.889694 -7.348664 -68.853593 -9.400958 -57.454206 -115.250126 -36.930331 0.000000 -0.000000 -0.000005 0.040358 -4.950609 -1.521426 0.000001 -0.000004 -3.107299 -5.000208 -7.999413 0.000087 -12.527799 73.258150 15.360279 -69.481766 104.275153 39.658783 0.000003 -0.000000 -0.000000 -0.014250 -3.130520 0.825226 -0.000001 -0.000012 3.035780 -5.000165 7.999940 -0.000013 3.237146 176.271937 -2.808165 179.999991 -0.000005 -1.056994 173.291762 -1.864164 -0.481228 -0.000004 0.000002 0.063240 68.784096 6.852070 2.234287 25.456930 -7.361607 -0.000006 0.964462 178.632191 1.851676 -0.000005 -0.000004 -1.103210 -10.966171 3.102000 0.613262 -0.000001 0.000004 -0.156295 70.371364 -6.813729 -2.242139 25.456911 7.361382 0.000004 
54.497696 -22.026606 93.913406 -4.220103 1.308514 -1.929496 -1.065181 0.064869 -0.016571 1.874644 0.123867 -0.024444 3.519728 0.123505 -0.025848 8.216482 6.143402 -2.429751 2.507059 -8.765434 -1.892181 -7.327126 -68.876051 -9.378429 -57.573270 -115.255836 -37.062970 -0.000001 0.000000 -0.000003 0.040306 -4.961348 -1.521643 0.000001 -0.000004 -3.107300 -5.000209 -7.999413 0.000088 -12.550333 73.258724 15.384897 -69.540738 104.284763 39.753026 0.000003 0.000001 0.000000 -0.014263 -3.097981 0.825226 -0.000000 -0.000013 3.035442 -5.000165 7.999940 -0.000013 3.235044 176.281923 -2.802626 179.999991 -0.000005 -1.056994 173.283115 -1.862149 -0.481276 -0.000003 0.000003 0.063483 68.786835 6.852065 2.234219 25.456936 -7.361608 -0.000006 0.967632 178.643188 1.860786 -0.000005 -0.000004 -1.103210 -10.961619 3.097659 0.613391 -0.000001 0.000004 -0.156295 70.372525 -6.813717 -2.241965 25.456918 7.361382 0.000004 
54.504997 -22.026407 93.913818 -4.223129 1.304599 -1.933006 -1.066142 0.064869 -0.015251 1.872485 0.123922 -0.022709 3.517559 0.123616 -0.024130 8.255899 6.143250 -2.433306 2.478392 -8.773914 -1.894676 -7.305513 -68.898509 -9.355832 -57.694198 -115.261191 -37.197569 -0.000001 0.000000 -0.000003 0.040255 -4.972049 -1.521862 -0.000001 -0.000003 -3.107309 -5.000211 -7.999411 0.000089 -12.572913 73.259154 15.409566 -69.599648 104.294386 39.847126 0.000003 -0.000000 0.000002 -0.014280 -3.065550 0.825228 -0.000001 -0.000013 3.035103 -5.000164 7.999940 -0.000014 3.232933 176.291895 -2.797106 179.999991 -0.000005 -1.056994 173.274413 -1.860121 -0.481324 -0.000004 0.000003 0.063726 68.789574 6.852062 2.234049 25.456933 -7.361608 -0.000006 0.970758 178.654185 1.869938 -0.000005 -0.000004 -1.103210 -10.957062 3.093288 0.613522 -0.000000 0.000004 -0.156295 70.373597 -6.813737 -2.241803 25.456912 7.361382 0.000004 
54.513191 -22.023111 93.914307 -4.226211 1.300685 -1.936514 -1.067078 0.064869 -0.013933 1.870365 0.123978 -0.020968 3.515449 0.123728 -0.022406 8.295246 6.143057 -2.436856 2.449726 -8.782303 -1.897182 -7.283914 -68.920878 -9.333243 -57.813119 -115.267119 -37.330115 0.000000 -0.000000 -0.000005 0.040204 -4.982830 -1.522079 -0.000003 -0.000005 -3.107311 -5.000210 -7.999413 0.000087 -12.595417 73.259824 15.434153 -69.658483 104.304024 39.941235 0.000003 0.000000 0.000001 -0.014296 -3.032910 0.825226 -0.000000 -0.000013 3.034761 -5.000166 7.999939 -0.000012 3.230846 176.301854 -2.791538 179.999991 -0.000005 -1.056994 173.265766 -1.859099 -0.481488 -0.000003 0.000002 0.063969 68.792210 6.852088 2.233888 25.456931 -7.361607 -0.000006 0.973978 178.665195 1.879020 -0.000005 -0.000004 -1.103210 -10.952515 3.088985 0.613653 -0.000002 0.000004 -0.156295 70.374758 -6.813725 -2.241729 25.456911 7.361382 0.000004 
54.516296 -22.020403 93.922897 -4.229465 1.296760 -1.940000 -1.067971 0.064869 -0.012615 1.868345 0.124035 -0.019216 3.513429 0.123841 -0.020671 8.334391 6.142773 -2.440363 2.421108 -8.790469 -1.899687 -7.262449 -68.943014 -9.310794 -57.931677 -115.272993 -37.462652 0.000001 -0.000001 -0.000005 0.040159 -4.993808 -1.522264 0.000001 -0.000004 -3.107310 -5.000209 -7.999412 0.000086 -12.617481 73.260698 15.458277 -69.717667 104.313429 40.036346 0.000004 -0.000000 -0.000002 -0.014308 -2.999750 0.825227 -0.000001 -0.000012 3.034413 -5.000166 7.999940 -0.000012 3.228824 176.311853 -2.785825 179.999991 -0.000005 -1.056994 173.257174 -1.857084 -0.481532 -0.000003 0.000002 0.064212 68.794963 6.852082 2.233818 25.456930 -7.361608 -0.000006 0.977416 178.676191 1.887918 -0.000005 -0.000004 -1.103210 -10.947963 3.084860 0.613782 -0.000002 0.000004 -0.156295 70.375612 -6.813742 -2.241680 25.456914 7.361383 0.000004 
54.510395 -21.975912 93.921097 -4.232971 1.292825 -1.943451 -1.068771 0.064869 -0.011299 1.866505 0.124095 -0.017445 3.511589 0.123956 -0.018916 8.373233 6.142356 -2.443826 2.392509 -8.798275 -1.902204 -7.241234 -68.964850 -9.288608 -58.049791 -115.278744 -37.595315 0.000002 -0.000001 -0.000004 0.040125 -5.005108 -1.522411 0.000000 -0.000005 -3.107322 -5.000209 -7.999412 0.000088 -12.639071 73.262125 15.481904 -69.777411 104.322458 40.132672 0.000003 0.000001 0.000000 -0.014319 -2.965750 0.825228 -0.000000 -0.000013 3.034050 -5.000165 7.999940 -0.000013 3.226903 176.321825 -2.779880 179.999991 -0.000005 -1.056994 173.248718 -1.856048 -0.481688 -0.000003 0.000002 0.064455 68.797791 6.852050 2.233737 25.456931 -7.361608 -0.000006 0.981209 178.687188 1.896538 -0.000005 -0.000004 -1.103210 -10.943215 3.081049 0.613905 -0.000002 0.000004 -0.156295 70.376343 -6.813723 -2.241533 25.456918 7.361382 0.000004 
54.519695 -21.980108 93.924606 -4.236835 1.288869 -1.946857 -1.069461 0.064869 -0.009987 1.864896 0.124159 -0.015647 3.509989 0.124073 -0.017133 8.411658 6.141742 -2.447217 2.363979 -8.805607 -1.904706 -7.220400 -68.986256 -9.266823 -58.163582 -115.285233 -37.724036 0.000002 -0.000001 -0.000002 0.040103 -5.016860 -1.522513 0.000002 -0.000004 -3.107321 -5.000209 -7.999411 0.000087 -12.659942 73.264304 15.504772 -69.837810 104.331119 40.230791 0.000003 0.000000 0.000002 -0.014323 -2.930601 0.825223 -0.000002 -0.000012 3.033681 -5.000165 7.999938 -0.000015 3.225122 176.331811 -2.773625 179.999991 -0.000005 -1.056994 173.240413 -1.856017 -0.481957 -0.000004 0.000002 0.064697 68.800543 6.852079 2.233672 25.456930 -7.361607 -0.000006 0.985495 178.698185 1.904758 -0.000005 -0.000004 -1.103210 -10.938374 3.077634 0.614020 -0.000001 0.000004 -0.156295 70.376780 -6.813730 -2.241505 25.456912 7.361382 0.000004 
54.521698 -21.975405 93.923813 -4.241160 1.284893 -1.950213 -1.070011 0.064869 -0.008680 1.863596 0.124227 -0.013816 3.508678 0.124193 -0.015317 8.449537 6.140888 -2.450531 2.335525 -8.812319 -1.907218 -7.200056 -69.007129 -9.245545 -58.278418 -115.290902 -37.854893 0.000003 -0.000000 -0.000002 0.040101 -5.029159 -1.522543 -0.000002 -0.000004 -3.107321 -5.000209 -7.999412 0.000089 -12.679924 73.267460 15.526716 -69.899364 104.339254 40.331454 0.000003 -0.000001 -0.000002 -0.014325 -2.894001 0.825225 -0.000001 -0.000012 3.033293 -5.000165 7.999940 -0.000011 3.223534 176.341783 -2.766972 179.999991 -0.000005 -1.056994 173.232339 -1.855986 -0.482218 -0.000004 0.000002 0.064939 68.803480 6.852053 2.233684 25.456931 -7.361607 -0.000007 0.990407 178.708198 1.912470 -0.000005 -0.000004 -1.103210 -10.933337 3.074750 0.614126 -0.000002 0.000004 -0.156295 70.376664 -6.813729 -2.241515 25.456911 7.361382 0.000004 
54.526897 -21.964510 93.920212 -4.246024 1.280886 -1.953501 -1.070390 0.064869 -0.007377 1.862644 0.124301 -0.011944 3.507729 0.124318 -0.013459 8.486757 6.139746 -2.453720 2.307164 -8.818280 -1.909722 -7.180281 -69.027278 -9.224857 -58.388801 -115.297213 -37.982023 0.000001 0.000000 -0.000003 0.040120 -5.042148 -1.522493 0.000000 -0.000003 -3.107320 -5.000211 -7.999411 0.000088 -12.698771 73.271694 15.547445 -69.961833 104.346671 40.434617 0.000004 -0.000000 -0.000000 -0.014321 -2.855621 0.825227 -0.000001 -0.000013 3.032880 -5.000165 7.999940 -0.000012 3.222156 176.351755 -2.759833 179.999991 -0.000005 -1.056994 173.224485 -1.856959 -0.482591 -0.000004 0.000002 0.065180 68.806431 6.852061 2.233702 25.456933 -7.361608 -0.000007 0.996078 178.719194 1.919584 -0.000005 -0.000004 -1.103210 -10.928105 3.072497 0.614222 -0.000000 0.000004 -0.156295 70.376145 -6.813753 -2.241549 25.456912 7.361383 0.000005 
